<svg width="32" height="32" viewBox="0 0 32 32" fill="none" xmlns="http://www.w3.org/2000/svg">
<circle cx="16" cy="16" r="16" fill="#F9F7F7"/>
<path fill-rule="evenodd" clip-rule="evenodd" d="M4 16C4 19.2442 5.99547 22.0224 8.82599 23.174C9.97764 26.0045 12.7558 28 16 28C19.2442 28 22.0224 26.0045 23.174 23.174C26.0045 22.0224 28 19.2442 28 16C28 12.7558 26.0045 9.97763 23.174 8.82599C22.0224 5.99547 19.2442 4 16 4C12.7558 4 9.97763 5.99547 8.82599 8.82599C5.99547 9.97764 4 12.7558 4 16ZM16 11.2C15.0367 11.8356 14.276 12.7534 13.8356 13.8356C12.7534 14.276 11.8356 15.0367 11.2 16C11.8356 16.9633 12.7534 17.724 13.8356 18.1644C14.276 19.2466 15.0367 20.1644 16 20.8C16.9633 20.1644 17.724 19.2466 18.1644 18.1644C19.2466 17.724 20.1644 16.9633 20.8 16C20.1644 15.0367 19.2466 14.276 18.1644 13.8356C17.724 12.7534 16.9633 11.8356 16 11.2Z" fill="url(#paint0_linear_530_2)"/>
<path fill-rule="evenodd" clip-rule="evenodd" d="M7.98104 16C6.98162 14.4852 6.3999 12.6705 6.3999 10.72C6.3999 9.44089 6.65006 8.22021 7.10413 7.10422C8.22012 6.65015 9.4408 6.39999 10.7199 6.39999C12.6704 6.39999 14.4851 6.98172 15.9999 7.98114C17.5147 6.98172 19.3294 6.39999 21.2799 6.39999C22.559 6.39999 23.7797 6.65015 24.8957 7.10422C25.3497 8.22021 25.5999 9.44089 25.5999 10.72C25.5999 12.6705 25.0182 14.4852 24.0188 16C25.0182 17.5148 25.5999 19.3294 25.5999 21.28C25.5999 22.5591 25.3497 23.7798 24.8957 24.8958C23.7797 25.3498 22.559 25.6 21.2799 25.6C19.3294 25.6 17.5147 25.0183 15.9999 24.0189C14.4851 25.0183 12.6704 25.6 10.7199 25.6C9.4408 25.6 8.22012 25.3498 7.10413 24.8958C6.65006 23.7798 6.3999 22.5591 6.3999 21.28C6.3999 19.3295 6.98162 17.5148 7.98104 16ZM15.9999 11.2C15.0366 11.8356 14.2759 12.7534 13.8355 13.8356C12.7533 14.276 11.8355 15.0367 11.1999 16C11.8355 16.9633 12.7533 17.724 13.8355 18.1644C14.2759 19.2466 15.0366 20.1644 15.9999 20.8C16.9632 20.1644 17.7239 19.2466 18.1643 18.1644C19.2465 17.724 20.1643 16.9633 20.7999 16C20.1643 15.0367 19.2465 14.276 18.1643 13.8356C17.7239 12.7534 16.9632 11.8356 15.9999 11.2Z" fill="url(#paint1_linear_530_2)"/>
<defs>
<linearGradient id="paint0_linear_530_2" x1="4" y1="4" x2="28" y2="28" gradientUnits="userSpaceOnUse">
<stop stop-color="#8A2387"/>
<stop offset="0.5" stop-color="#E94057"/>
<stop offset="1" stop-color="#F27121"/>
</linearGradient>
<linearGradient id="paint1_linear_530_2" x1="25.5999" y1="25.6" x2="6.3999" y2="6.39999" gradientUnits="userSpaceOnUse">
<stop stop-color="#8A2387"/>
<stop offset="0.5" stop-color="#E94057"/>
<stop offset="1" stop-color="#F27121"/>
</linearGradient>
</defs>
</svg>
